# xmcd
#
# Track frame offsets: 
#        150
#        20325
#        41400
#        59850
#
# Disc length: 1239 seconds
#
# Revision: 0
# Processed by: cddbd v1.5.2PL0 Copyright (c) Steve Scherf et al.
# Submitted via: ExactAudioCopy v1.0b3
#
DISCID=3004d504
DTITLE=Various Artist - En stämningsfull stund
DYEAR=2004
DGENRE=New Age
TTITLE0=Tommy Kaså - Peaceful Tree
TTITLE1=Peter Janson - Even if it Rains
TTITLE2=Ad Dios - In Aboundance
TTITLE3=Tommy Kaså - Flakes of Joy
EXTD=
EXTT0=
EXTT1=
EXTT2=
EXTT3=
PLAYORDER=
